<?xml version="1.0" encoding="iso-8859-1"?>
<!-- Uploaded to: SVG Repo, www.svgrepo.com, Generator: SVG Repo Mixer Tools -->
<svg fill="#000000" version="1.1" id="Layer_1" xmlns="http://www.w3.org/2000/svg" xmlns:xlink="http://www.w3.org/1999/xlink" 
	 viewBox="0 0 512 512" xml:space="preserve">
<g>
	<g>
		<path d="M432.825,232.247v42.227h-84.454v-31.67h-21.113v-47.505h-36.948v-63.437c0.881,0.055,1.762,0.097,2.639,0.097h21.113
			c12.03,0,23.276-4.685,31.673-13.192c8.509-8.398,13.193-19.645,13.193-31.674c0-24.74-20.126-44.866-44.866-44.866h-21.113
			c-12.03,0-23.276,4.685-31.673,13.192c-1.969,1.943-3.723,4.045-5.272,6.269c-8.099-11.744-21.638-19.46-36.952-19.46h-21.113
			c-12.03,0-23.276,4.685-31.673,13.192c-8.508,8.398-13.193,19.645-13.193,31.674c0,24.74,20.126,44.866,44.866,44.866h21.113
			c0.877,0,1.758-0.041,2.639-0.096v63.436h-36.948v47.505h-21.113v31.67H79.175v-42.227H0v237.526h79.175v-42.227h84.454v31.67
			h184.742v-31.67h84.454v42.227H512V232.247H432.825z M63.34,453.938H47.505V303.505H31.67v150.433H15.835V248.082H63.34V453.938z
			 M163.629,411.711H79.175V290.309h84.454V411.711z M272.428,66.66l0.088-0.088c5.402-5.488,12.659-8.511,20.432-8.511h21.113
			c16.007,0,29.031,13.023,29.031,29.031c0,7.774-3.022,15.031-8.511,20.432l-0.088,0.088c-5.402,5.488-12.659,8.511-20.432,8.511
			h-21.113c-2.6,0-5.266-0.392-8.007-1.187c-12.379-3.453-21.024-14.903-21.024-27.844C263.918,79.319,266.94,72.062,272.428,66.66z
			 M255.998,112.497c4.584,6.667,10.94,12.068,18.476,15.444v67.357h-36.948V127.93c4.926-2.211,9.421-5.308,13.212-9.175
			C252.701,116.815,254.452,114.716,255.998,112.497z M219.052,116.124h-21.113c-16.007,0-29.031-13.023-29.031-29.031
			c0-7.774,3.022-15.031,8.511-20.432l0.088-0.088c5.402-5.488,12.659-8.511,20.433-8.511h21.113
			c16.007,0,29.031,13.023,29.031,29.031c0,7.774-3.022,15.031-8.511,20.432l-0.11,0.111c-3.391,3.473-7.673,5.995-12.382,7.295
			l-0.102,0.029C224.317,115.732,221.652,116.124,219.052,116.124z M200.577,211.134h110.845v31.67H200.577V211.134z
			 M332.536,443.381H179.464V258.639h153.072V443.381z M432.825,411.711h-84.454V290.309h84.454V411.711z M496.165,453.938H480.33
			V303.505h-15.835v150.433H448.66V248.082h47.505V453.938z"/>
	</g>
</g>
<g>
	<g>
		<path d="M200.577,279.753v142.516h110.845V279.753H200.577z M295.588,406.433h-79.175V295.588h79.175V406.433z"/>
	</g>
</g>
<g>
	<g>
		<rect x="229.608" y="311.423" width="52.784" height="15.835"/>
	</g>
</g>
<g>
	<g>
		<rect x="229.608" y="343.093" width="52.784" height="15.835"/>
	</g>
</g>
<g>
	<g>
		<rect x="229.608" y="374.763" width="21.113" height="15.835"/>
	</g>
</g>
<g>
	<g>
		<rect x="261.278" y="374.763" width="21.113" height="15.835"/>
	</g>
</g>
<g>
	<g>
		<rect x="192.66" y="79.175" width="31.67" height="15.835"/>
	</g>
</g>
<g>
	<g>
		<rect x="287.67" y="79.175" width="31.67" height="15.835"/>
	</g>
</g>
<g>
	<g>
		<rect x="97.649" y="311.423" width="47.505" height="15.835"/>
	</g>
</g>
<g>
	<g>
		<rect x="366.845" y="311.423" width="47.505" height="15.835"/>
	</g>
</g>
</svg>